<svg version="1.1" id="Layer_1" xmlns="http://www.w3.org/2000/svg" xmlns:xlink="http://www.w3.org/1999/xlink" x="0px" y="0px"
	 width="100%" viewBox="0 0 512 512" enable-background="new 0 0 512 512" xml:space="preserve">
<path fill="#A3D4F7" opacity="1.000000" stroke="none" 
	d="
M513.000000,306.000000 
	C513.000000,314.687561 513.000000,323.375122 512.707703,332.790558 
	C512.124329,335.309967 511.929993,337.123505 511.527527,338.889648 
	C506.439148,361.220093 495.801483,380.102081 477.828278,394.783142 
	C460.463196,408.967468 440.605469,416.791504 418.433228,416.855255 
	C308.192596,417.172333 197.950577,417.012421 87.709053,416.983215 
	C74.916885,416.979828 62.630974,413.999725 51.226627,408.495911 
	C26.538652,396.581268 10.709765,377.027527 3.289180,350.631622 
	C2.831065,349.002014 1.776863,347.539978 0.999998,346.000000 
	C1.000000,334.312439 1.000000,322.624878 1.324477,310.298981 
	C2.115030,308.642395 2.721273,307.664337 3.026798,306.600006 
	C11.941747,275.543854 30.957405,253.910416 62.110870,243.965469 
	C69.543434,241.592804 77.390793,240.519531 85.024261,238.853653 
	C65.316162,173.057983 103.207565,123.964256 142.025650,106.932648 
	C164.441025,97.097801 187.795654,94.633949 211.157562,100.483391 
	C247.091888,109.480751 272.071808,132.182053 285.938171,166.733292 
	C301.268311,160.635559 316.469391,158.260590 332.285980,161.001205 
	C349.509827,163.985657 364.347961,171.795059 376.468048,184.184113 
	C384.625183,192.522217 390.474518,202.571732 394.380035,213.714752 
	C397.520386,222.674637 397.722626,222.547134 406.876526,222.023300 
	C428.093964,220.809097 448.195618,224.457443 466.532562,235.795898 
	C485.377472,247.448456 499.126129,263.409546 506.835419,284.224579 
	C509.447327,291.276764 510.976196,298.730011 513.000000,306.000000 
z"/>
<path fill="#FFFFFF" opacity="1.000000" stroke="none" 
	d="
M513.000000,305.531342 
	C510.976196,298.730011 509.447327,291.276764 506.835419,284.224579 
	C499.126129,263.409546 485.377472,247.448456 466.532562,235.795898 
	C448.195618,224.457443 428.093964,220.809097 406.876526,222.023300 
	C397.722626,222.547134 397.520386,222.674637 394.380035,213.714752 
	C390.474518,202.571732 384.625183,192.522217 376.468048,184.184113 
	C364.347961,171.795059 349.509827,163.985657 332.285980,161.001205 
	C316.469391,158.260590 301.268311,160.635559 285.938171,166.733292 
	C272.071808,132.182053 247.091888,109.480751 211.157562,100.483391 
	C187.795654,94.633949 164.441025,97.097801 142.025650,106.932648 
	C103.207565,123.964256 65.316162,173.057983 85.024261,238.853653 
	C77.390793,240.519531 69.543434,241.592804 62.110870,243.965469 
	C30.957405,253.910416 11.941747,275.543854 3.026798,306.600006 
	C2.721273,307.664337 2.115030,308.642395 1.324477,309.830322 
	C1.000000,207.039978 1.000000,104.079948 1.000000,1.059959 
	C171.560440,1.059959 342.120911,1.059959 513.000000,1.059959 
	C513.000000,102.354004 513.000000,203.708344 513.000000,305.531342 
z"/>
<path fill="#FFFFFF" opacity="1.000000" stroke="none" 
	d="
M0.999998,346.468658 
	C1.776863,347.539978 2.831065,349.002014 3.289180,350.631622 
	C10.709765,377.027527 26.538652,396.581268 51.226627,408.495911 
	C62.630974,413.999725 74.916885,416.979828 87.709053,416.983215 
	C197.950577,417.012421 308.192596,417.172333 418.433228,416.855255 
	C440.605469,416.791504 460.463196,408.967468 477.828278,394.783142 
	C495.801483,380.102081 506.439148,361.220093 511.527527,338.889648 
	C511.929993,337.123505 512.124329,335.309967 512.707703,333.259216 
	C513.000000,392.969421 513.000000,452.938843 513.000000,512.954102 
	C342.450897,512.954102 171.901779,512.954102 1.000000,512.954102 
	C1.000000,457.646271 1.000000,402.291809 0.999998,346.468658 
z"/>
</svg>