<?xml version="1.0"?>
<svg width="512" height="512" xmlns="http://www.w3.org/2000/svg" xmlns:svg="http://www.w3.org/2000/svg" enable-background="new 0 0 512 512" version="1.1" xml:space="preserve">
 <g class="layer">
  <path d="m513,306c0,8.69 0,17.38 -0.29,26.79c-0.59,2.52 -0.78,4.33 -1.18,6.1c-5.09,22.33 -15.73,41.21 -33.7,55.89c-17.37,14.19 -37.22,22.01 -59.4,22.08c-110.24,0.31 -220.48,0.15 -330.72,0.12c-12.79,0 -25.08,-2.98 -36.48,-8.48c-24.69,-11.92 -40.52,-31.47 -47.94,-57.87c-0.46,-1.63 -1.51,-3.09 -2.29,-4.63c0,-11.69 0,-23.38 0.32,-35.7c0.8,-1.66 1.4,-2.64 1.71,-3.7c8.91,-31.06 27.93,-52.69 59.08,-62.63c7.43,-2.38 15.28,-3.45 22.91,-5.12c-19.7,-65.79 18.19,-114.89 57.01,-131.92c22.41,-9.83 45.77,-12.3 69.13,-6.45c35.93,9 60.91,31.7 74.78,66.25c15.33,-6.09 30.53,-8.47 46.35,-5.73c17.22,2.99 32.06,10.8 44.18,23.18c8.16,8.34 14,18.39 17.91,29.53c3.14,8.96 3.34,8.84 12.5,8.31c21.21,-1.21 41.32,2.44 59.65,13.78c18.85,11.65 32.6,27.61 40.31,48.42c2.61,7.06 4.14,14.51 6.16,21.78z" fill="#A3D4F7" id="svg_1" opacity="1"/>
 </g>
</svg>